<svg width="13" height="15" viewBox="0 0 13 15" fill="none" xmlns="http://www.w3.org/2000/svg">
<g clip-path="url(#clip0_4_416)">
<path d="M6.08054 14.1207C6.27833 14.1203 6.4601 14.0456 6.61014 13.8965L11.8299 8.95235C12.0037 8.78832 12.0667 8.63187 12.0663 8.45324C12.0657 8.08855 11.7804 7.80622 11.3849 7.80694C11.195 7.80728 11.0132 7.86715 10.8868 7.98647L9.08631 9.65694L6.22812 12.617L6.62393 12.7651L6.77779 10.3682L6.76069 0.953029C6.75999 0.566001 6.46684 0.29859 6.05545 0.299337C5.64416 0.300084 5.35193 0.568557 5.35263 0.955585L5.36972 10.3708L5.53228 12.7671L5.91965 12.6175L3.05862 9.66788L1.25203 8.00396C1.13315 7.88509 0.94319 7.82589 0.753342 7.82623C0.35785 7.82695 0.0735907 8.11032 0.0742528 8.47501C0.074577 8.65364 0.146041 8.80984 0.29662 8.95838L5.55018 13.8984C5.70071 14.047 5.88279 14.121 6.08054 14.1207Z" fill="#D9DFF2"/>
</g>
<defs>
<clipPath id="clip0_4_416">
<rect width="14" height="12" fill="white" transform="translate(12.0515 0.288452) rotate(89.896)"/>
</clipPath>
</defs>
</svg>
