<svg width="143" height="61" viewBox="0 0 143 61" fill="none" xmlns="http://www.w3.org/2000/svg">
<path d="M32.55 11.1892C32.8175 11.3101 33.086 11.4284 33.3548 11.5461C33.6391 11.6706 33.9233 11.7953 34.2071 11.9207C35.1163 12.3224 36.0322 12.7075 36.9499 13.0895C37.4148 13.2831 37.8793 13.4776 38.3439 13.672C38.4863 13.7315 38.4863 13.7315 38.6316 13.7923C39.8043 14.2826 40.9762 14.7746 42.1481 15.2668C42.3144 15.3366 42.3144 15.3366 42.4841 15.4079C44.1527 16.1088 45.8201 16.8126 47.4867 17.5184C48.5602 17.973 49.6343 18.4263 50.7098 18.8763C50.8099 18.9182 50.9101 18.9601 51.0132 19.0032C51.4882 19.2019 51.9633 19.4004 52.4385 19.5986C52.8595 19.7742 53.2799 19.9513 53.7001 20.1288C53.9572 20.2366 54.2152 20.3422 54.4732 20.4477C54.6418 20.518 54.8104 20.5884 54.979 20.6589C55.0556 20.6896 55.1323 20.7204 55.2113 20.752C55.7803 20.9927 56.2471 21.3054 56.5302 21.8691C56.5586 22.1236 56.5586 22.1236 56.5679 22.4257C56.5724 22.5242 56.577 22.6227 56.5817 22.7241C56.5131 23.1649 56.3468 23.4012 56.0649 23.745C55.7183 23.969 55.7183 23.969 55.3186 24.1565C55.1897 24.2183 55.0608 24.2802 54.928 24.344C54.2173 24.6613 53.5012 24.9665 52.7864 25.2744C52.7557 29.683 52.7251 34.0917 52.6935 38.6339C52.8483 38.711 53.0031 38.788 53.1626 38.8674C53.9819 39.6637 54.23 40.6833 54.2666 41.7951C54.2703 42.1442 54.2438 42.4396 54.1315 42.7711C53.8295 43.6649 53.912 44.2491 54.2017 45.1324C54.2388 45.2554 54.276 45.3785 54.3142 45.5053C54.4324 45.8953 54.555 46.2838 54.6783 46.6723C54.7996 47.0618 54.9199 47.4516 55.0386 47.8419C55.1123 48.0837 55.1877 48.325 55.2648 48.5658C55.4807 49.2646 55.5803 49.8497 55.5277 50.5819C55.3524 50.8825 55.3524 50.8825 55.0598 51.0515C54.2567 51.1964 53.7364 50.8997 53.0355 50.5173C52.2227 50.1001 51.3251 50.1436 50.4589 50.386C50.0886 50.5074 49.8619 50.6208 49.5369 50.8491C49.0673 51.1464 48.8132 51.125 48.2629 51.0639C47.977 50.9399 47.977 50.9399 47.7935 50.7132C47.5998 49.9576 47.7653 49.3313 47.9471 48.5852C47.9904 48.3986 47.9904 48.3986 48.0345 48.2082C48.1574 47.6782 48.2837 47.149 48.4096 46.6197C48.5013 46.2322 48.5913 45.8443 48.6812 45.4564C48.7101 45.3376 48.7391 45.2187 48.7689 45.0963C48.9596 44.2723 48.9546 43.6863 48.7095 42.8746C48.4318 41.7847 48.589 40.6219 49.1046 39.6219C49.4906 39.0145 49.8817 38.5215 50.5835 38.2862C50.5762 34.303 50.569 30.3198 50.5616 26.2159C47.7183 27.4122 44.8767 28.6096 42.0409 29.823C40.1038 30.6517 38.1638 31.4733 36.224 32.2953C35.6778 32.5268 35.1318 32.7584 34.5858 32.9901C34.1694 33.1668 33.7529 33.3433 33.3364 33.5199C33.1409 33.6028 32.9454 33.6857 32.7499 33.7687C32.4819 33.8824 32.2139 33.996 31.9458 34.1095C31.867 34.143 31.7882 34.1765 31.7071 34.2109C30.8009 34.5942 30.2355 34.7061 29.3132 34.3455C29.0514 34.2359 28.7903 34.1247 28.5298 34.0123C28.3827 33.9501 28.2355 33.8881 28.0883 33.8262C27.7591 33.6875 27.4303 33.5479 27.1016 33.4078C26.5053 33.1538 25.9075 32.9031 25.3097 32.6526C24.4075 32.2745 23.5056 31.8957 22.6041 31.5163C21.5079 31.055 20.4113 30.595 19.3142 30.1358C17.0641 29.1939 14.8151 28.2493 12.5663 27.3042C11.7406 26.9572 10.9147 26.6104 10.0889 26.2637C9.73197 26.1139 9.37509 25.964 9.01822 25.8142C8.79187 25.7192 8.56551 25.6241 8.33914 25.5291C8.23193 25.4842 8.12472 25.4392 8.01426 25.3928C7.90992 25.349 7.80557 25.3052 7.69807 25.2601C7.49631 25.1753 7.29465 25.0903 7.0931 25.0051C6.65156 24.8183 6.20963 24.6339 5.76376 24.4578C5.68801 24.4272 5.61225 24.3967 5.5342 24.3652C5.33663 24.2857 5.13841 24.2079 4.94014 24.1302C4.50146 23.891 4.25506 23.5795 4.03245 23.1363C3.96986 22.5752 3.97392 22.101 4.19075 21.5759C4.97837 20.7666 6.23846 20.4218 7.27012 19.9949C7.63983 19.8419 8.00913 19.6879 8.37846 19.534C8.57582 19.4518 8.7732 19.3696 8.9706 19.2875C9.99349 18.8619 11.0147 18.4323 12.0357 18.0023C12.3533 17.8685 12.671 17.7348 12.9886 17.6011C13.418 17.4204 13.8474 17.2397 14.2768 17.0589C14.9116 16.7917 15.5465 16.5245 16.1814 16.2574C16.285 16.2138 16.3887 16.1702 16.4955 16.1252C17.0189 15.905 17.5423 15.6848 18.0657 15.4647C19.2235 14.9776 20.3813 14.4903 21.5388 14.0024C22.0622 13.7819 22.5858 13.5617 23.1096 13.3422C23.3169 13.2553 23.5242 13.1684 23.7315 13.0814C23.834 13.0385 23.9365 12.9955 24.0422 12.9512C24.6949 12.6769 25.3459 12.3989 25.9959 12.1184C26.4354 11.9291 26.8755 11.7414 27.3157 11.554C27.5238 11.4649 27.7316 11.3751 27.939 11.2844C29.7546 10.4916 30.7161 10.3601 32.55 11.1892Z" fill="url(#paint0_linear_4_326)"/>
<path d="M14.2399 29.9145C14.6028 29.9794 14.9318 30.0588 15.2717 30.2014C15.3558 30.2364 15.4399 30.2714 15.5266 30.3074C15.6623 30.3649 15.6623 30.3649 15.8009 30.4235C15.8976 30.4639 15.9943 30.5043 16.0939 30.5459C16.4143 30.6799 16.7342 30.8147 17.0543 30.9495C17.2802 31.0441 17.5061 31.1388 17.7321 31.2333C18.3258 31.482 18.9192 31.7314 19.5125 31.981C19.9725 32.1745 20.4326 32.3678 20.8927 32.5611C21.2273 32.7017 21.5619 32.8423 21.8965 32.9829C22.0608 33.0519 22.0608 33.0519 22.2283 33.1223C22.4486 33.2149 22.6688 33.3074 22.8891 33.4C24.3516 34.0148 25.8144 34.629 27.2792 35.2382C27.4631 35.3148 27.647 35.3915 27.8308 35.4682C28.0819 35.5731 28.3332 35.6775 28.5845 35.7817C28.7253 35.8403 28.8662 35.8989 29.0113 35.9593C31.0949 36.7687 33.2875 35.3422 35.1715 34.5124C36.4628 33.9438 37.7618 33.3942 39.062 32.8461C39.2512 32.7664 39.4404 32.6866 39.6296 32.6068C39.7253 32.5664 39.8211 32.5261 39.9197 32.4845C40.7102 32.1508 41.4993 31.8136 42.2881 31.4759C42.6517 31.3205 43.0154 31.1652 43.379 31.0099C43.6164 30.9084 43.8536 30.8066 44.0907 30.7047C44.4216 30.5625 44.7529 30.421 45.0842 30.2797C45.1836 30.2367 45.2829 30.1938 45.3852 30.1496C45.5221 30.0914 45.5221 30.0914 45.6618 30.0321C45.7412 29.9981 45.8206 29.964 45.9024 29.929C46.1148 29.8567 46.1148 29.8567 46.4664 29.856C46.4768 31.0734 46.4852 32.2908 46.4912 33.5082C46.4941 34.0735 46.4976 34.6389 46.5026 35.2042C46.5074 35.7506 46.5105 36.2969 46.5124 36.8432C46.5134 37.0509 46.5151 37.2586 46.5174 37.4663C46.5468 40.2317 46.5468 40.2317 45.5035 41.317C44.945 41.7935 44.3228 42.1498 43.6824 42.5027C43.4472 42.6325 43.2143 42.7658 42.9813 42.8995C40.6834 44.1935 38.1665 45.0668 35.5892 45.6009C35.5008 45.6192 35.4124 45.6376 35.3214 45.6565C33.6683 45.9799 32.0481 46.0984 30.3679 46.0938C30.2705 46.0937 30.1731 46.0937 30.0727 46.0937C28.5321 46.0908 27.0325 46.0219 25.5186 45.7144C25.4162 45.6938 25.3138 45.6733 25.2084 45.6521C21.8676 44.9613 16.6538 43.5414 14.6108 40.5779C14.2504 39.8775 14.2395 39.1227 14.2419 38.3491C14.2417 38.2576 14.2415 38.166 14.2413 38.0717C14.2409 37.7712 14.2412 37.4706 14.2416 37.1701C14.2414 36.9609 14.2412 36.7517 14.241 36.5425C14.2404 35.9935 14.2406 35.4444 14.2409 34.8954C14.241 34.3345 14.2406 33.7736 14.2401 33.2127C14.2394 32.1133 14.2394 31.0139 14.2399 29.9145Z" fill="url(#paint1_linear_4_326)"/>
<path d="M69.5089 24.6609L72.2766 24.6559L72.2921 33.1573C72.2938 34.1118 72.0673 34.9475 71.6127 35.6642C71.1623 36.3809 70.5305 36.9403 69.7173 37.3424C68.9041 37.7401 67.9563 37.94 66.8739 37.942C65.7872 37.944 64.8366 37.7475 64.022 37.3527C63.2073 36.9536 62.5735 36.3965 62.1205 35.6814C61.6675 34.9663 61.4401 34.1315 61.4384 33.177L61.423 24.6756L64.1907 24.6705L64.2057 32.9354C64.2066 33.434 64.3161 33.877 64.5341 34.2644C64.7564 34.6518 65.068 34.9559 65.469 35.1768C65.87 35.3976 66.3368 35.5076 66.8695 35.5066C67.4064 35.5056 67.8728 35.394 68.2687 35.1717C68.6689 34.9494 68.9773 34.6441 69.1939 34.2559C69.4148 33.8678 69.5248 33.4244 69.5239 32.9258L69.5089 24.6609ZM77.2391 32.0616L77.2494 37.7378L74.5264 37.7427L74.5086 27.9246L77.1038 27.9198L77.1069 29.6521L77.222 29.6519C77.4383 29.0805 77.8018 28.6281 78.3125 28.2948C78.8233 27.9572 79.443 27.7878 80.1717 27.7864C80.8535 27.7852 81.4483 27.9333 81.9559 28.2306C82.4635 28.528 82.8585 28.9534 83.1407 29.5069C83.423 30.0561 83.5648 30.7121 83.5662 31.4749L83.5775 37.7263L80.8545 37.7312L80.8441 31.9656C80.8472 31.3648 80.693 30.8963 80.3813 30.5602C80.0696 30.2199 79.641 30.0502 79.0956 30.0512C78.7291 30.0518 78.4054 30.1313 78.1244 30.2894C77.8477 30.4476 77.6308 30.6781 77.4737 30.981C77.3208 31.2795 77.2426 31.6398 77.2391 32.0616ZM85.7237 37.7224L85.7058 27.9042L88.4289 27.8993L88.4467 37.7174L85.7237 37.7224ZM87.0714 26.6361C86.6666 26.6369 86.3191 26.5033 86.0288 26.2353C85.7428 25.9631 85.5995 25.6374 85.5988 25.2581C85.5981 24.8831 85.7403 24.5611 86.0253 24.2921C86.3146 24.0189 86.6616 23.8819 87.0664 23.8812C87.4713 23.8804 87.8167 24.0162 88.1027 24.2884C88.393 24.5563 88.5384 24.8778 88.5391 25.2528C88.5398 25.632 88.3955 25.9583 88.1062 26.2315C87.8212 26.5005 87.4763 26.6354 87.0714 26.6361ZM97.7637 28.3745C97.7116 27.859 97.4915 27.4588 97.1032 27.174C96.7149 26.8892 96.1883 26.7474 95.5235 26.7486C95.0718 26.7494 94.6906 26.814 94.3797 26.9425C94.0689 27.0666 93.8305 27.2396 93.6647 27.4615C93.5032 27.6834 93.4227 27.935 93.4232 28.2162C93.4151 28.4506 93.4645 28.6551 93.5714 28.8296C93.6825 29.0041 93.834 29.1551 94.026 29.2826C94.218 29.4058 94.4398 29.5141 94.6914 29.6074C94.943 29.6964 95.2116 29.7726 95.4972 29.836L96.6738 30.1151C97.2451 30.2419 97.7695 30.4114 98.2472 30.6237C98.7249 30.8359 99.1387 31.0972 99.4887 31.4076C99.8387 31.7181 100.11 32.084 100.302 32.5056C100.499 32.9271 100.6 33.4106 100.606 33.956C100.603 34.7572 100.399 35.4521 99.9957 36.0409C99.5962 36.6255 99.0174 37.0804 98.2595 37.4056C97.5058 37.7266 96.5963 37.888 95.531 37.89C94.4742 37.8919 93.5534 37.7316 92.7687 37.4092C91.9883 37.0867 91.3781 36.6084 90.938 35.9743C90.5022 35.3359 90.2728 34.5458 90.2498 33.6041L92.928 33.5992C92.9586 34.0381 93.085 34.4043 93.3071 34.698C93.5335 34.9873 93.8343 35.2062 94.2096 35.3547C94.5891 35.4989 95.0175 35.5706 95.4948 35.5697C95.9636 35.5689 96.3704 35.4999 96.7153 35.3629C97.0645 35.2259 97.3348 35.0358 97.5261 34.7926C97.7174 34.5493 97.8128 34.27 97.8122 33.9547C97.8117 33.6607 97.7239 33.4137 97.5488 33.2137C97.378 33.0137 97.1262 32.8437 96.7936 32.7037C96.4652 32.5637 96.0623 32.4366 95.5848 32.3224L94.1587 31.967C93.0545 31.7005 92.1823 31.2824 91.5421 30.7125C90.9019 30.1427 90.583 29.3741 90.5855 28.4067C90.5798 27.6141 90.7895 26.9213 91.2145 26.3282C91.6439 25.7351 92.2332 25.2716 92.9826 24.9379C93.732 24.6041 94.584 24.4364 95.5385 24.4347C96.5101 24.4329 97.3584 24.5976 98.0835 24.9286C98.8127 25.2597 99.3803 25.721 99.7863 26.3126C100.192 26.9042 100.402 27.5899 100.416 28.3697L97.7637 28.3745ZM107.627 27.8644L107.631 29.9099L101.718 29.9206L101.715 27.8752L107.627 27.8644ZM103.053 25.5205L105.776 25.5155L105.792 34.6689C105.793 34.9203 105.832 35.1163 105.908 35.2568C105.985 35.393 106.092 35.4887 106.229 35.5438C106.369 35.599 106.531 35.6264 106.715 35.626C106.842 35.6258 106.97 35.6149 107.098 35.5934C107.226 35.5676 107.324 35.5482 107.392 35.5353L107.824 37.5608C107.688 37.6037 107.496 37.653 107.249 37.7089C107.002 37.769 106.701 37.8058 106.348 37.8192C105.692 37.8459 105.116 37.7596 104.621 37.5602C104.131 37.3608 103.749 37.0505 103.476 36.6291C103.202 36.2077 103.067 35.6753 103.07 35.0318L103.053 25.5205ZM115.708 33.4876L115.697 27.8498L118.42 27.8448L118.438 37.663L115.824 37.6677L115.821 35.8844L115.718 35.8846C115.498 36.4602 115.13 36.9233 114.615 37.2736C114.104 37.624 113.48 37.7998 112.743 37.8012C112.087 37.8024 111.509 37.6543 111.01 37.3569C110.511 37.0595 110.12 36.6362 109.838 36.087C109.56 35.5378 109.418 34.8797 109.412 34.1126L109.401 27.8612L112.124 27.8563L112.135 33.6219C112.14 34.2014 112.296 34.6592 112.604 34.9953C112.911 35.3314 113.323 35.499 113.838 35.4981C114.166 35.4975 114.473 35.4223 114.758 35.2727C115.044 35.1187 115.273 34.8925 115.447 34.5939C115.626 34.2952 115.713 33.9265 115.708 33.4876ZM124.234 37.8123C123.489 37.8136 122.813 37.6231 122.207 37.2407C121.605 36.854 121.127 36.286 120.772 35.5366C120.421 34.783 120.245 33.8586 120.243 32.7634C120.241 31.6384 120.42 30.7027 120.781 29.9563C121.142 29.2057 121.623 28.6444 122.223 28.2726C122.827 27.8965 123.489 27.7078 124.21 27.7065C124.759 27.7055 125.218 27.7984 125.584 27.9852C125.956 28.1678 126.254 28.3974 126.481 28.674C126.711 28.9463 126.886 29.2144 127.006 29.4784L127.089 29.4783L127.08 24.5564L129.797 24.5515L129.821 37.6423L127.136 37.6472L127.133 36.0748L127.018 36.075C126.891 36.3479 126.71 36.6189 126.476 36.8878C126.247 37.1524 125.947 37.3724 125.576 37.5478C125.21 37.7232 124.763 37.8113 124.234 37.8123ZM125.093 35.6438C125.532 35.643 125.903 35.523 126.205 35.2838C126.511 35.0404 126.745 34.7012 126.906 34.2662C127.072 33.8313 127.154 33.3219 127.153 32.7381C127.152 32.1543 127.07 31.6473 126.907 31.2172C126.744 30.7871 126.509 30.4552 126.202 30.2213C125.895 29.9875 125.522 29.871 125.083 29.8718C124.635 29.8726 124.259 29.9948 123.952 30.2382C123.646 30.4817 123.414 30.8187 123.257 31.2494C123.1 31.6801 123.022 32.1788 123.023 32.7456C123.025 33.3166 123.104 33.8214 123.263 34.2601C123.425 34.6944 123.658 35.0349 123.961 35.2815C124.269 35.5239 124.646 35.6446 125.093 35.6438ZM133.747 41.317C133.402 41.3177 133.078 41.2906 132.776 41.2357C132.477 41.1851 132.23 41.1195 132.034 41.0389L132.644 39.0051C132.963 39.1025 133.251 39.1553 133.507 39.1634C133.767 39.1714 133.99 39.1113 134.178 38.9832C134.369 38.855 134.524 38.6374 134.643 38.3303L134.802 37.9145L131.262 27.8215L134.126 27.8163L136.171 35.0229L136.274 35.0227L138.312 27.8087L141.195 27.8035L137.399 38.6897C137.217 39.2184 136.968 39.6791 136.653 40.0717C136.343 40.4686 135.949 40.774 135.473 40.9879C134.996 41.2061 134.421 41.3158 133.747 41.317Z" fill="white"/>
<defs>
<linearGradient id="paint0_linear_4_326" x1="30.2677" y1="10.6259" x2="30.3413" y2="51.1349" gradientUnits="userSpaceOnUse">
<stop stop-color="#F2F0EF"/>
<stop offset="0.845" stop-color="#D9DFF2"/>
</linearGradient>
<linearGradient id="paint1_linear_4_326" x1="30.3678" y1="29.8852" x2="30.3973" y2="46.0941" gradientUnits="userSpaceOnUse">
<stop stop-color="#F2F0EF"/>
<stop offset="0.845" stop-color="#D9DFF2"/>
</linearGradient>
</defs>
</svg>
