<svg width="16" height="16" viewBox="0 0 16 16" fill="none" xmlns="http://www.w3.org/2000/svg">
<path d="M13.4375 13.4374L10.2976 10.2975M10.2976 10.2975C10.7184 9.87673 11.0522 9.37719 11.2799 8.82741C11.5076 8.27763 11.6249 7.68838 11.6249 7.09331C11.6249 6.49823 11.5076 5.90899 11.2799 5.35921C11.0522 4.80943 10.7184 4.30989 10.2976 3.88911C9.87685 3.46833 9.37731 3.13455 8.82753 2.90682C8.27775 2.6791 7.68851 2.56189 7.09343 2.56189C6.49836 2.56189 5.90911 2.6791 5.35933 2.90682C4.80955 3.13455 4.31002 3.46833 3.88923 3.88911C3.03943 4.73892 2.56201 5.8915 2.56201 7.09331C2.56201 8.29512 3.03943 9.4477 3.88923 10.2975C4.73904 11.1473 5.89162 11.6247 7.09343 11.6247C8.29524 11.6247 9.44782 11.1473 10.2976 10.2975Z" stroke="#D9DFF2" stroke-width="1.5" stroke-linecap="round" stroke-linejoin="round"/>
</svg>
