<svg width="20" height="20" viewBox="0 0 20 20" fill="none" xmlns="http://www.w3.org/2000/svg">
<path d="M4.90234 5.20662C4.90234 4.56016 5.59487 4.15083 6.16128 4.46198L14.8764 9.25529C15.0098 9.32857 15.121 9.43634 15.1985 9.56733C15.276 9.69832 15.3169 9.84773 15.3169 9.99992C15.3169 10.1521 15.276 10.3015 15.1985 10.4325C15.121 10.5635 15.0098 10.6713 14.8764 10.7446L6.16128 15.5379C6.0319 15.609 5.88622 15.6452 5.73859 15.6429C5.59097 15.6405 5.4465 15.5998 5.31942 15.5246C5.19234 15.4495 5.08705 15.3425 5.01391 15.2142C4.94077 15.086 4.90232 14.9409 4.90234 14.7932V5.20662Z" stroke="black" stroke-width="1.5" stroke-linecap="round" stroke-linejoin="round"/>
</svg>
