<svg width="15" height="21" viewBox="0 0 15 21" fill="none" xmlns="http://www.w3.org/2000/svg">
<g clip-path="url(#clip0_36_72)">
<path d="M6.95577 4.14889C7.05981 4.14889 7.11586 4.08074 7.13189 3.9785C7.37199 2.59838 7.34802 2.53022 8.74074 2.26613C8.83679 2.24057 8.90082 2.18093 8.90082 2.07019C8.90082 1.96796 8.83679 1.8998 8.74074 1.88276C7.34802 1.61866 7.37199 1.55051 7.13189 0.170386C7.11586 0.0681542 7.05981 0 6.95577 0C6.85173 0 6.79568 0.0681542 6.7797 0.170386C6.53955 1.55051 6.56357 1.61866 5.17085 1.88276C5.06677 1.8998 5.01074 1.96796 5.01074 2.07019C5.01074 2.18093 5.06677 2.24057 5.17085 2.26613C6.56357 2.53022 6.53955 2.59838 6.7797 3.9785C6.79568 4.08074 6.85173 4.14889 6.95577 4.14889Z" fill="#F2F0EF"/>
<path d="M3.08165 10.0102C3.23373 10.0102 3.33778 9.89937 3.3538 9.74605C3.64195 7.47139 3.71399 7.47139 5.92317 7.01988C6.05923 6.99431 6.16327 6.89208 6.16327 6.73025C6.16327 6.57688 6.05923 6.46614 5.92317 6.44908C3.71399 6.11687 3.63394 6.04015 3.3538 3.73144C3.33778 3.56958 3.23373 3.45882 3.08165 3.45882C2.93757 3.45882 2.83352 3.56958 2.80951 3.73996C2.55337 6.01458 2.4333 6.00607 0.240128 6.44908C0.104056 6.47465 0 6.57688 0 6.73025C0 6.90058 0.104056 6.99431 0.272146 7.01988C2.44931 7.39473 2.55337 7.45438 2.80951 9.72904C2.83352 9.89937 2.93757 10.0102 3.08165 10.0102Z" fill="#F2F0EF"/>
<path d="M8.50837 19.4325C8.71645 19.4325 8.86855 19.2706 8.90856 19.0406C9.47687 14.3805 10.0932 13.6649 14.4315 13.1538C14.6557 13.1282 14.8077 12.9578 14.8077 12.7278C14.8077 12.5063 14.6557 12.3359 14.4315 12.3103C10.0932 11.7992 9.47687 11.0836 8.90856 6.415C8.86855 6.18502 8.71645 6.03165 8.50837 6.03165C8.30023 6.03165 8.14814 6.18502 8.11617 6.415C7.54785 11.0836 6.92349 11.7992 2.59319 12.3103C2.36107 12.3359 2.20898 12.5063 2.20898 12.7278C2.20898 12.9578 2.36107 13.1282 2.59319 13.1538C6.9155 13.7586 7.51584 14.3805 8.11617 19.0406C8.14814 19.2706 8.30023 19.4325 8.50837 19.4325Z" fill="#F2F0EF"/>
</g>
<defs>
<clipPath id="clip0_36_72">
<rect width="15" height="21" fill="white"/>
</clipPath>
</defs>
</svg>
